<mxfile host="app.diagrams.net" agent="Mozilla/5.0 (Windows NT 10.0; Win64; x64) AppleWebKit/537.36 (KHTML, like Gecko) Chrome/141.0.0.0 Safari/537.36" version="28.2.8">
  <diagram name="Página-1" id="TmtqT-8mbexbhlbY3YPu">
    <mxGraphModel dx="983" dy="536" grid="1" gridSize="10" guides="1" tooltips="1" connect="1" arrows="1" fold="1" page="1" pageScale="1" pageWidth="827" pageHeight="1169" math="0" shadow="0">
      <root>
        <mxCell id="0" />
        <mxCell id="1" parent="0" />
        <mxCell id="fqWVMnZXrcxKra8IxSqk-1" style="edgeStyle=orthogonalEdgeStyle;rounded=0;orthogonalLoop=1;jettySize=auto;html=1;endArrow=none;endFill=0;dashed=1;fontSize=9;" edge="1" parent="1" source="fqWVMnZXrcxKra8IxSqk-2">
          <mxGeometry relative="1" as="geometry">
            <mxPoint x="80" y="450" as="targetPoint" />
          </mxGeometry>
        </mxCell>
        <mxCell id="fqWVMnZXrcxKra8IxSqk-2" value="Eleitor" style="shape=umlActor;verticalLabelPosition=bottom;verticalAlign=top;html=1;outlineConnect=0;fontSize=9;" vertex="1" parent="1">
          <mxGeometry x="70" y="40" width="20" height="40" as="geometry" />
        </mxCell>
        <mxCell id="fqWVMnZXrcxKra8IxSqk-3" style="edgeStyle=orthogonalEdgeStyle;rounded=0;orthogonalLoop=1;jettySize=auto;html=1;entryX=0;entryY=0.5;entryDx=0;entryDy=0;fontSize=7;" edge="1" parent="1">
          <mxGeometry relative="1" as="geometry">
            <mxPoint x="85" y="130" as="sourcePoint" />
            <mxPoint x="175" y="130" as="targetPoint" />
          </mxGeometry>
        </mxCell>
        <mxCell id="fqWVMnZXrcxKra8IxSqk-48" style="edgeStyle=orthogonalEdgeStyle;rounded=0;orthogonalLoop=1;jettySize=auto;html=1;entryX=0;entryY=0.5;entryDx=0;entryDy=0;" edge="1" parent="1">
          <mxGeometry relative="1" as="geometry">
            <mxPoint x="85" y="379.9999999999999" as="sourcePoint" />
            <mxPoint x="175" y="379.9999999999999" as="targetPoint" />
          </mxGeometry>
        </mxCell>
        <mxCell id="fqWVMnZXrcxKra8IxSqk-4" value="" style="rounded=0;whiteSpace=wrap;html=1;fontSize=7;" vertex="1" parent="1">
          <mxGeometry x="75" y="120" width="10" height="310" as="geometry" />
        </mxCell>
        <mxCell id="fqWVMnZXrcxKra8IxSqk-5" style="edgeStyle=orthogonalEdgeStyle;rounded=0;orthogonalLoop=1;jettySize=auto;html=1;dashed=1;endArrow=none;endFill=0;fontSize=9;" edge="1" parent="1" source="fqWVMnZXrcxKra8IxSqk-6">
          <mxGeometry relative="1" as="geometry">
            <mxPoint x="180" y="450" as="targetPoint" />
          </mxGeometry>
        </mxCell>
        <mxCell id="fqWVMnZXrcxKra8IxSqk-6" value="Eleitor" style="rounded=0;whiteSpace=wrap;html=1;fontSize=9;" vertex="1" parent="1">
          <mxGeometry x="140" y="40" width="80" height="40" as="geometry" />
        </mxCell>
        <mxCell id="fqWVMnZXrcxKra8IxSqk-7" style="edgeStyle=orthogonalEdgeStyle;rounded=0;orthogonalLoop=1;jettySize=auto;html=1;dashed=1;endArrow=none;endFill=0;fontSize=7;" edge="1" parent="1" source="fqWVMnZXrcxKra8IxSqk-49">
          <mxGeometry relative="1" as="geometry">
            <mxPoint x="452" y="450" as="targetPoint" />
            <Array as="points" />
          </mxGeometry>
        </mxCell>
        <mxCell id="fqWVMnZXrcxKra8IxSqk-8" value="UEv" style="rounded=0;whiteSpace=wrap;html=1;fontSize=9;" vertex="1" parent="1">
          <mxGeometry x="412.21" y="40" width="80" height="40" as="geometry" />
        </mxCell>
        <mxCell id="fqWVMnZXrcxKra8IxSqk-31" style="edgeStyle=orthogonalEdgeStyle;rounded=0;orthogonalLoop=1;jettySize=auto;html=1;entryX=0;entryY=0.5;entryDx=0;entryDy=0;fontSize=7;" edge="1" parent="1">
          <mxGeometry relative="1" as="geometry">
            <mxPoint x="185" y="190" as="sourcePoint" />
            <mxPoint x="265" y="190" as="targetPoint" />
          </mxGeometry>
        </mxCell>
        <mxCell id="fqWVMnZXrcxKra8IxSqk-51" style="edgeStyle=orthogonalEdgeStyle;rounded=0;orthogonalLoop=1;jettySize=auto;html=1;entryX=0;entryY=0.5;entryDx=0;entryDy=0;" edge="1" parent="1" source="fqWVMnZXrcxKra8IxSqk-13" target="fqWVMnZXrcxKra8IxSqk-49">
          <mxGeometry relative="1" as="geometry">
            <Array as="points">
              <mxPoint x="447" y="380" />
            </Array>
          </mxGeometry>
        </mxCell>
        <mxCell id="fqWVMnZXrcxKra8IxSqk-55" style="edgeStyle=orthogonalEdgeStyle;rounded=0;orthogonalLoop=1;jettySize=auto;html=1;entryX=1;entryY=0.5;entryDx=0;entryDy=0;dashed=1;" edge="1" parent="1">
          <mxGeometry relative="1" as="geometry">
            <mxPoint x="175" y="414.9999999999999" as="sourcePoint" />
            <mxPoint x="85" y="414.9999999999999" as="targetPoint" />
          </mxGeometry>
        </mxCell>
        <mxCell id="fqWVMnZXrcxKra8IxSqk-13" value="" style="rounded=0;whiteSpace=wrap;html=1;fontSize=7;" vertex="1" parent="1">
          <mxGeometry x="175" y="120" width="10" height="310" as="geometry" />
        </mxCell>
        <mxCell id="fqWVMnZXrcxKra8IxSqk-17" style="edgeStyle=orthogonalEdgeStyle;rounded=0;orthogonalLoop=1;jettySize=auto;html=1;entryX=1.057;entryY=0.617;entryDx=0;entryDy=0;entryPerimeter=0;fontSize=7;" edge="1" parent="1">
          <mxGeometry relative="1" as="geometry">
            <mxPoint x="185" y="131.89" as="sourcePoint" />
            <mxPoint x="185.56999999999994" y="159.9699999999999" as="targetPoint" />
            <Array as="points">
              <mxPoint x="240" y="131.89" />
              <mxPoint x="240" y="159.89" />
            </Array>
          </mxGeometry>
        </mxCell>
        <mxCell id="fqWVMnZXrcxKra8IxSqk-21" value="UC_01" style="text;html=1;whiteSpace=wrap;strokeColor=none;fillColor=none;align=center;verticalAlign=middle;rounded=0;" vertex="1" parent="1">
          <mxGeometry width="60" height="30" as="geometry" />
        </mxCell>
        <mxCell id="fqWVMnZXrcxKra8IxSqk-24" style="edgeStyle=orthogonalEdgeStyle;rounded=0;orthogonalLoop=1;jettySize=auto;html=1;dashed=1;endArrow=none;endFill=0;fontSize=7;" edge="1" parent="1" source="fqWVMnZXrcxKra8IxSqk-28">
          <mxGeometry relative="1" as="geometry">
            <mxPoint x="270" y="450" as="targetPoint" />
          </mxGeometry>
        </mxCell>
        <mxCell id="fqWVMnZXrcxKra8IxSqk-22" value="Voto" style="rounded=0;whiteSpace=wrap;html=1;fontSize=9;" vertex="1" parent="1">
          <mxGeometry x="230" y="40" width="80" height="40" as="geometry" />
        </mxCell>
        <mxCell id="fqWVMnZXrcxKra8IxSqk-25" style="edgeStyle=orthogonalEdgeStyle;rounded=0;orthogonalLoop=1;jettySize=auto;html=1;dashed=1;endArrow=none;endFill=0;fontSize=7;" edge="1" parent="1">
          <mxGeometry relative="1" as="geometry">
            <mxPoint x="360" y="450" as="targetPoint" />
            <mxPoint x="360" y="260" as="sourcePoint" />
          </mxGeometry>
        </mxCell>
        <mxCell id="fqWVMnZXrcxKra8IxSqk-23" value="Candidato" style="rounded=0;whiteSpace=wrap;html=1;fontSize=9;" vertex="1" parent="1">
          <mxGeometry x="320" y="40" width="80" height="40" as="geometry" />
        </mxCell>
        <mxCell id="fqWVMnZXrcxKra8IxSqk-26" value="Selecionar&lt;div&gt;tipo de voto&lt;/div&gt;" style="edgeLabel;html=1;align=center;verticalAlign=middle;resizable=0;points=[];fontSize=7;" vertex="1" connectable="0" parent="1">
          <mxGeometry x="126" y="118" as="geometry">
            <mxPoint x="1" y="-2" as="offset" />
          </mxGeometry>
        </mxCell>
        <mxCell id="fqWVMnZXrcxKra8IxSqk-27" value="Se for&lt;div&gt;branco ou nulo&lt;/div&gt;" style="edgeLabel;html=1;align=left;verticalAlign=middle;resizable=0;points=[];fontSize=7;" vertex="1" connectable="0" parent="1">
          <mxGeometry x="187" y="120" as="geometry">
            <mxPoint x="1" y="-2" as="offset" />
          </mxGeometry>
        </mxCell>
        <mxCell id="fqWVMnZXrcxKra8IxSqk-29" value="" style="edgeStyle=orthogonalEdgeStyle;rounded=0;orthogonalLoop=1;jettySize=auto;html=1;dashed=1;endArrow=none;endFill=0;" edge="1" parent="1" source="fqWVMnZXrcxKra8IxSqk-22" target="fqWVMnZXrcxKra8IxSqk-28">
          <mxGeometry relative="1" as="geometry">
            <mxPoint x="270" y="310" as="targetPoint" />
            <mxPoint x="270" y="80" as="sourcePoint" />
          </mxGeometry>
        </mxCell>
        <mxCell id="fqWVMnZXrcxKra8IxSqk-35" style="edgeStyle=orthogonalEdgeStyle;rounded=0;orthogonalLoop=1;jettySize=auto;html=1;entryX=0;entryY=0.5;entryDx=0;entryDy=0;fontSize=7;" edge="1" parent="1">
          <mxGeometry relative="1" as="geometry">
            <mxPoint x="275" y="190" as="sourcePoint" />
            <mxPoint x="447.21000000000026" y="190" as="targetPoint" />
          </mxGeometry>
        </mxCell>
        <mxCell id="fqWVMnZXrcxKra8IxSqk-28" value="" style="rounded=0;whiteSpace=wrap;html=1;fontSize=7;" vertex="1" parent="1">
          <mxGeometry x="265" y="180" width="10" height="20" as="geometry" />
        </mxCell>
        <mxCell id="fqWVMnZXrcxKra8IxSqk-32" value="Se não" style="edgeLabel;html=1;align=center;verticalAlign=middle;resizable=0;points=[];fontSize=7;" vertex="1" connectable="0" parent="1">
          <mxGeometry x="203" y="184" as="geometry">
            <mxPoint x="1" y="-2" as="offset" />
          </mxGeometry>
        </mxCell>
        <mxCell id="fqWVMnZXrcxKra8IxSqk-34" value="" style="edgeStyle=orthogonalEdgeStyle;rounded=0;orthogonalLoop=1;jettySize=auto;html=1;dashed=1;endArrow=none;endFill=0;fontSize=9;" edge="1" parent="1" source="fqWVMnZXrcxKra8IxSqk-8" target="fqWVMnZXrcxKra8IxSqk-14">
          <mxGeometry relative="1" as="geometry">
            <mxPoint x="453.68" y="310" as="targetPoint" />
            <Array as="points" />
            <mxPoint x="452" y="80" as="sourcePoint" />
          </mxGeometry>
        </mxCell>
        <mxCell id="fqWVMnZXrcxKra8IxSqk-45" style="edgeStyle=orthogonalEdgeStyle;rounded=0;orthogonalLoop=1;jettySize=auto;html=1;dashed=1;fontSize=7;" edge="1" parent="1">
          <mxGeometry relative="1" as="geometry">
            <mxPoint x="447.21000000000026" y="285" as="sourcePoint" />
            <mxPoint x="190" y="285" as="targetPoint" />
            <Array as="points">
              <mxPoint x="185" y="285" />
            </Array>
          </mxGeometry>
        </mxCell>
        <mxCell id="fqWVMnZXrcxKra8IxSqk-14" value="" style="rounded=0;whiteSpace=wrap;html=1;fontSize=7;" vertex="1" parent="1">
          <mxGeometry x="447.21" y="180" width="10" height="120" as="geometry" />
        </mxCell>
        <mxCell id="fqWVMnZXrcxKra8IxSqk-36" value="Validar candidato" style="edgeLabel;html=1;align=center;verticalAlign=middle;resizable=0;points=[];fontSize=7;" vertex="1" connectable="0" parent="1">
          <mxGeometry x="296" y="186" as="geometry">
            <mxPoint x="20" y="-4" as="offset" />
          </mxGeometry>
        </mxCell>
        <mxCell id="fqWVMnZXrcxKra8IxSqk-38" style="edgeStyle=orthogonalEdgeStyle;rounded=0;orthogonalLoop=1;jettySize=auto;html=1;entryX=0.886;entryY=0.111;entryDx=0;entryDy=0;entryPerimeter=0;dashed=1;fontSize=7;" edge="1" parent="1">
          <mxGeometry relative="1" as="geometry">
            <mxPoint x="447.21000000000026" y="220" as="sourcePoint" />
            <mxPoint x="363.8600000000001" y="220.55000000000007" as="targetPoint" />
          </mxGeometry>
        </mxCell>
        <mxCell id="fqWVMnZXrcxKra8IxSqk-39" value="Candidato existe?" style="edgeLabel;html=1;align=center;verticalAlign=middle;resizable=0;points=[];fontSize=7;" vertex="1" connectable="0" parent="1">
          <mxGeometry x="388" y="215" as="geometry">
            <mxPoint x="20" y="-4" as="offset" />
          </mxGeometry>
        </mxCell>
        <mxCell id="fqWVMnZXrcxKra8IxSqk-40" value="" style="edgeStyle=orthogonalEdgeStyle;rounded=0;orthogonalLoop=1;jettySize=auto;html=1;dashed=1;endArrow=none;endFill=0;" edge="1" parent="1" source="fqWVMnZXrcxKra8IxSqk-23" target="fqWVMnZXrcxKra8IxSqk-30">
          <mxGeometry relative="1" as="geometry">
            <mxPoint x="360" y="310" as="targetPoint" />
            <mxPoint x="360" y="80" as="sourcePoint" />
          </mxGeometry>
        </mxCell>
        <mxCell id="fqWVMnZXrcxKra8IxSqk-30" value="" style="rounded=0;whiteSpace=wrap;html=1;fontSize=7;" vertex="1" parent="1">
          <mxGeometry x="355" y="210" width="10" height="60" as="geometry" />
        </mxCell>
        <mxCell id="fqWVMnZXrcxKra8IxSqk-41" style="edgeStyle=orthogonalEdgeStyle;rounded=0;orthogonalLoop=1;jettySize=auto;html=1;entryX=-0.107;entryY=0.462;entryDx=0;entryDy=0;entryPerimeter=0;fontSize=7;" edge="1" parent="1">
          <mxGeometry relative="1" as="geometry">
            <mxPoint x="366.07" y="257.9985714285714" as="sourcePoint" />
            <mxPoint x="447.2100000000001" y="258.40999999999997" as="targetPoint" />
          </mxGeometry>
        </mxCell>
        <mxCell id="fqWVMnZXrcxKra8IxSqk-42" value="Se sim:&lt;div&gt;Exibir dados&lt;/div&gt;" style="edgeLabel;html=1;align=left;verticalAlign=middle;resizable=0;points=[];fontSize=7;" vertex="1" connectable="0" parent="1">
          <mxGeometry x="347.07" y="250" as="geometry">
            <mxPoint x="20" y="-4" as="offset" />
          </mxGeometry>
        </mxCell>
        <mxCell id="fqWVMnZXrcxKra8IxSqk-46" style="edgeStyle=orthogonalEdgeStyle;rounded=0;orthogonalLoop=1;jettySize=auto;html=1;entryX=1.057;entryY=0.617;entryDx=0;entryDy=0;entryPerimeter=0;fontSize=7;" edge="1" parent="1">
          <mxGeometry relative="1" as="geometry">
            <mxPoint x="185" y="320" as="sourcePoint" />
            <mxPoint x="185.56999999999994" y="348.0799999999999" as="targetPoint" />
            <Array as="points">
              <mxPoint x="240" y="320" />
              <mxPoint x="240" y="348" />
            </Array>
          </mxGeometry>
        </mxCell>
        <mxCell id="fqWVMnZXrcxKra8IxSqk-47" value="Se não existir:&lt;div&gt;Exception Error&lt;/div&gt;&lt;div&gt;(&quot;Cadidato não existe&quot;)&lt;/div&gt;" style="edgeLabel;html=1;align=left;verticalAlign=middle;resizable=0;points=[];fontSize=7;" vertex="1" connectable="0" parent="1">
          <mxGeometry x="186" y="306" as="geometry">
            <mxPoint x="1" y="-2" as="offset" />
          </mxGeometry>
        </mxCell>
        <mxCell id="fqWVMnZXrcxKra8IxSqk-50" value="" style="edgeStyle=orthogonalEdgeStyle;rounded=0;orthogonalLoop=1;jettySize=auto;html=1;dashed=1;endArrow=none;endFill=0;fontSize=7;" edge="1" parent="1" source="fqWVMnZXrcxKra8IxSqk-14" target="fqWVMnZXrcxKra8IxSqk-49">
          <mxGeometry relative="1" as="geometry">
            <mxPoint x="452" y="480" as="targetPoint" />
            <Array as="points" />
            <mxPoint x="452" y="300" as="sourcePoint" />
          </mxGeometry>
        </mxCell>
        <mxCell id="fqWVMnZXrcxKra8IxSqk-49" value="" style="rounded=0;whiteSpace=wrap;html=1;fontSize=7;" vertex="1" parent="1">
          <mxGeometry x="447.21000000000004" y="370" width="10" height="20" as="geometry" />
        </mxCell>
        <mxCell id="fqWVMnZXrcxKra8IxSqk-53" value="Confirmar" style="edgeLabel;html=1;align=center;verticalAlign=middle;resizable=0;points=[];fontSize=7;" vertex="1" connectable="0" parent="1">
          <mxGeometry x="108" y="377" as="geometry">
            <mxPoint x="20" y="-4" as="offset" />
          </mxGeometry>
        </mxCell>
        <mxCell id="fqWVMnZXrcxKra8IxSqk-54" value="Receber voto" style="edgeLabel;html=1;align=center;verticalAlign=middle;resizable=0;points=[];fontSize=7;" vertex="1" connectable="0" parent="1">
          <mxGeometry x="204" y="377" as="geometry">
            <mxPoint x="20" y="-4" as="offset" />
          </mxGeometry>
        </mxCell>
        <mxCell id="fqWVMnZXrcxKra8IxSqk-56" value="Exibir mensagem&lt;div&gt;de sucesso&lt;/div&gt;" style="edgeLabel;html=1;align=left;verticalAlign=middle;resizable=0;points=[];fontSize=7;" vertex="1" connectable="0" parent="1">
          <mxGeometry x="85" y="405" as="geometry">
            <mxPoint x="20" y="-4" as="offset" />
          </mxGeometry>
        </mxCell>
      </root>
    </mxGraphModel>
  </diagram>
</mxfile>
